<?xml version="1.0" encoding="UTF-8"?>
<svg width="29px" height="38px" viewBox="0 0 29 38" version="1.1" xmlns="http://www.w3.org/2000/svg" xmlns:xlink="http://www.w3.org/1999/xlink">
    <title>nomiSvg0 Copy</title>
    <g id="Prototype" stroke="none" stroke-width="1" fill="none" fill-rule="evenodd">
        <g id="Learning---Questions-1" transform="translate(-20, -453)">
            <g id="Moni-says-wrapper" transform="translate(19.1667, 451.7083)">
                <g id="Moni-Says-Wrapper" transform="translate(0, 1)">
                    <g id="nomiSvg0-Copy" transform="translate(-2, 1)">
                        <line x1="13.2222222" y1="6.61111111" x2="10.3888889" y2="0.944444444" id="Path" stroke="#9B7BC8" stroke-width="1.18055556" fill="#000000" stroke-linecap="round"></line>
                        <line x1="20.7777778" y1="6.61111111" x2="23.6111111" y2="0.944444444" id="Path" stroke="#9B7BC8" stroke-width="1.18055556" fill="#000000" stroke-linecap="round"></line>
                        <circle id="Oval" fill="#8B5CF6" cx="10.3888889" cy="0.944444444" r="1.65277778"></circle>
                        <circle id="Oval" fill="#8B5CF6" cx="23.6111111" cy="0.944444444" r="1.65277778"></circle>
                        <circle id="Oval" fill="#B39DDB" cx="17" cy="17" r="14.1666667"></circle>
                        <circle id="Oval" fill="#C5AEE8" cx="17" cy="17" r="12.75"></circle>
                        <ellipse id="Oval" fill="#D4BEF5" cx="17" cy="16.0555556" rx="10.8611111" ry="10.3888889"></ellipse>
                        <ellipse id="Oval" fill="#F48FB1" opacity="0.6" cx="8.5" cy="18.8888889" rx="3.30555556" ry="2.36111111"></ellipse>
                        <ellipse id="Oval" fill="#F48FB1" opacity="0.6" cx="25.5" cy="18.8888889" rx="3.30555556" ry="2.36111111"></ellipse>
                        <circle id="Oval" fill="#FFFFFF" cx="12.75" cy="15.1111111" r="2.59722222"></circle>
                        <circle id="Oval" fill="#FFFFFF" cx="21.25" cy="15.1111111" r="2.59722222"></circle>
                        <circle id="Oval" fill="#3D1C7A" cx="13.4583333" cy="15.5833333" r="1.65277778"></circle>
                        <circle id="Oval" fill="#3D1C7A" cx="21.9583333" cy="15.5833333" r="1.65277778"></circle>
                        <circle id="Oval" fill="#FFFFFF" cx="14.1666667" cy="14.875" r="1"></circle>
                        <circle id="Oval" fill="#FFFFFF" cx="22.6666667" cy="14.875" r="1"></circle>
                        <path d="M12.2777778,20.7777778 C15.4259259,23.6111111 18.5740741,23.6111111 21.7222222,20.7777778" id="Path" stroke="#3D1C7A" stroke-width="1.03888889" stroke-linecap="round"></path>
                        <rect id="Rectangle" fill="#FF9800" x="8.5" y="25.5" width="17" height="10.3888889" rx="3.77777767"></rect>
                        <rect id="Rectangle" fill="#FFB74D" x="9.91666667" y="25.5" width="14.1666667" height="6.61111111" rx="2.83333325"></rect>
                        <ellipse id="Oval" fill="#C5AEE8" cx="12.2777778" cy="34" rx="3.30555556" ry="2.36111111"></ellipse>
                        <ellipse id="Oval" fill="#C5AEE8" cx="21.7222222" cy="34" rx="3.30555556" ry="2.36111111"></ellipse>
                    </g>
                </g>
            </g>
        </g>
    </g>
</svg>